<mxfile host="app.diagrams.net" modified="2024-01-05T15:30:32.233Z" agent="Mozilla/5.0 (Windows NT 10.0; Win64; x64; rv:121.0) Gecko/20100101 Firefox/121.0" etag="xSA93kQ5juB4Hg8-BXZ3" version="22.1.16" type="github">
  <diagram id="R2lEEEUBdFMjLlhIrx00" name="Page-1">
    <mxGraphModel dx="2441" dy="637" grid="1" gridSize="10" guides="1" tooltips="1" connect="1" arrows="1" fold="1" page="1" pageScale="1" pageWidth="850" pageHeight="1100" math="0" shadow="0" extFonts="Permanent Marker^https://fonts.googleapis.com/css?family=Permanent+Marker">
      <root>
        <mxCell id="0" />
        <mxCell id="1" parent="0" />
        <mxCell id="wc5Q7rNn-N-xNiQu3_dc-1" value="users" style="shape=table;startSize=30;container=1;collapsible=1;childLayout=tableLayout;fixedRows=1;rowLines=0;fontStyle=1;align=center;resizeLast=1;html=1;" parent="1" vertex="1">
          <mxGeometry x="200.01" y="440" width="279.99" height="180" as="geometry" />
        </mxCell>
        <mxCell id="wc5Q7rNn-N-xNiQu3_dc-2" value="" style="shape=tableRow;horizontal=0;startSize=0;swimlaneHead=0;swimlaneBody=0;fillColor=none;collapsible=0;dropTarget=0;points=[[0,0.5],[1,0.5]];portConstraint=eastwest;top=0;left=0;right=0;bottom=1;" parent="wc5Q7rNn-N-xNiQu3_dc-1" vertex="1">
          <mxGeometry y="30" width="279.99" height="30" as="geometry" />
        </mxCell>
        <mxCell id="wc5Q7rNn-N-xNiQu3_dc-3" value="PK" style="shape=partialRectangle;connectable=0;fillColor=none;top=0;left=0;bottom=0;right=0;fontStyle=1;overflow=hidden;whiteSpace=wrap;html=1;" parent="wc5Q7rNn-N-xNiQu3_dc-2" vertex="1">
          <mxGeometry width="30" height="30" as="geometry">
            <mxRectangle width="30" height="30" as="alternateBounds" />
          </mxGeometry>
        </mxCell>
        <mxCell id="wc5Q7rNn-N-xNiQu3_dc-4" value="id UUID" style="shape=partialRectangle;connectable=0;fillColor=none;top=0;left=0;bottom=0;right=0;align=left;spacingLeft=6;fontStyle=5;overflow=hidden;whiteSpace=wrap;html=1;" parent="wc5Q7rNn-N-xNiQu3_dc-2" vertex="1">
          <mxGeometry x="30" width="249.99" height="30" as="geometry">
            <mxRectangle width="249.99" height="30" as="alternateBounds" />
          </mxGeometry>
        </mxCell>
        <mxCell id="wc5Q7rNn-N-xNiQu3_dc-5" value="" style="shape=tableRow;horizontal=0;startSize=0;swimlaneHead=0;swimlaneBody=0;fillColor=none;collapsible=0;dropTarget=0;points=[[0,0.5],[1,0.5]];portConstraint=eastwest;top=0;left=0;right=0;bottom=0;" parent="wc5Q7rNn-N-xNiQu3_dc-1" vertex="1">
          <mxGeometry y="60" width="279.99" height="30" as="geometry" />
        </mxCell>
        <mxCell id="wc5Q7rNn-N-xNiQu3_dc-6" value="" style="shape=partialRectangle;connectable=0;fillColor=none;top=0;left=0;bottom=0;right=0;editable=1;overflow=hidden;whiteSpace=wrap;html=1;" parent="wc5Q7rNn-N-xNiQu3_dc-5" vertex="1">
          <mxGeometry width="30" height="30" as="geometry">
            <mxRectangle width="30" height="30" as="alternateBounds" />
          </mxGeometry>
        </mxCell>
        <mxCell id="wc5Q7rNn-N-xNiQu3_dc-7" value="name varchar(255) NOT NULL" style="shape=partialRectangle;connectable=0;fillColor=none;top=0;left=0;bottom=0;right=0;align=left;spacingLeft=6;overflow=hidden;whiteSpace=wrap;html=1;" parent="wc5Q7rNn-N-xNiQu3_dc-5" vertex="1">
          <mxGeometry x="30" width="249.99" height="30" as="geometry">
            <mxRectangle width="249.99" height="30" as="alternateBounds" />
          </mxGeometry>
        </mxCell>
        <mxCell id="wc5Q7rNn-N-xNiQu3_dc-8" value="" style="shape=tableRow;horizontal=0;startSize=0;swimlaneHead=0;swimlaneBody=0;fillColor=none;collapsible=0;dropTarget=0;points=[[0,0.5],[1,0.5]];portConstraint=eastwest;top=0;left=0;right=0;bottom=0;" parent="wc5Q7rNn-N-xNiQu3_dc-1" vertex="1">
          <mxGeometry y="90" width="279.99" height="30" as="geometry" />
        </mxCell>
        <mxCell id="wc5Q7rNn-N-xNiQu3_dc-9" value="" style="shape=partialRectangle;connectable=0;fillColor=none;top=0;left=0;bottom=0;right=0;editable=1;overflow=hidden;whiteSpace=wrap;html=1;" parent="wc5Q7rNn-N-xNiQu3_dc-8" vertex="1">
          <mxGeometry width="30" height="30" as="geometry">
            <mxRectangle width="30" height="30" as="alternateBounds" />
          </mxGeometry>
        </mxCell>
        <mxCell id="wc5Q7rNn-N-xNiQu3_dc-10" value="email varchar(255) NOT NULL UNIQUE" style="shape=partialRectangle;connectable=0;fillColor=none;top=0;left=0;bottom=0;right=0;align=left;spacingLeft=6;overflow=hidden;whiteSpace=wrap;html=1;" parent="wc5Q7rNn-N-xNiQu3_dc-8" vertex="1">
          <mxGeometry x="30" width="249.99" height="30" as="geometry">
            <mxRectangle width="249.99" height="30" as="alternateBounds" />
          </mxGeometry>
        </mxCell>
        <mxCell id="wc5Q7rNn-N-xNiQu3_dc-11" value="" style="shape=tableRow;horizontal=0;startSize=0;swimlaneHead=0;swimlaneBody=0;fillColor=none;collapsible=0;dropTarget=0;points=[[0,0.5],[1,0.5]];portConstraint=eastwest;top=0;left=0;right=0;bottom=0;" parent="wc5Q7rNn-N-xNiQu3_dc-1" vertex="1">
          <mxGeometry y="120" width="279.99" height="30" as="geometry" />
        </mxCell>
        <mxCell id="wc5Q7rNn-N-xNiQu3_dc-12" value="" style="shape=partialRectangle;connectable=0;fillColor=none;top=0;left=0;bottom=0;right=0;editable=1;overflow=hidden;whiteSpace=wrap;html=1;" parent="wc5Q7rNn-N-xNiQu3_dc-11" vertex="1">
          <mxGeometry width="30" height="30" as="geometry">
            <mxRectangle width="30" height="30" as="alternateBounds" />
          </mxGeometry>
        </mxCell>
        <mxCell id="wc5Q7rNn-N-xNiQu3_dc-13" value="password varchar(255) NOT NULL" style="shape=partialRectangle;connectable=0;fillColor=none;top=0;left=0;bottom=0;right=0;align=left;spacingLeft=6;overflow=hidden;whiteSpace=wrap;html=1;" parent="wc5Q7rNn-N-xNiQu3_dc-11" vertex="1">
          <mxGeometry x="30" width="249.99" height="30" as="geometry">
            <mxRectangle width="249.99" height="30" as="alternateBounds" />
          </mxGeometry>
        </mxCell>
        <mxCell id="q7Uk0JzoAxezMymjL-A8-164" value="" style="shape=tableRow;horizontal=0;startSize=0;swimlaneHead=0;swimlaneBody=0;fillColor=none;collapsible=0;dropTarget=0;points=[[0,0.5],[1,0.5]];portConstraint=eastwest;top=0;left=0;right=0;bottom=0;" vertex="1" parent="wc5Q7rNn-N-xNiQu3_dc-1">
          <mxGeometry y="150" width="279.99" height="30" as="geometry" />
        </mxCell>
        <mxCell id="q7Uk0JzoAxezMymjL-A8-165" value="" style="shape=partialRectangle;connectable=0;fillColor=none;top=0;left=0;bottom=0;right=0;editable=1;overflow=hidden;whiteSpace=wrap;html=1;" vertex="1" parent="q7Uk0JzoAxezMymjL-A8-164">
          <mxGeometry width="30" height="30" as="geometry">
            <mxRectangle width="30" height="30" as="alternateBounds" />
          </mxGeometry>
        </mxCell>
        <mxCell id="q7Uk0JzoAxezMymjL-A8-166" value="profile varchar(255) NOT NULL" style="shape=partialRectangle;connectable=0;fillColor=none;top=0;left=0;bottom=0;right=0;align=left;spacingLeft=6;overflow=hidden;whiteSpace=wrap;html=1;" vertex="1" parent="q7Uk0JzoAxezMymjL-A8-164">
          <mxGeometry x="30" width="249.99" height="30" as="geometry">
            <mxRectangle width="249.99" height="30" as="alternateBounds" />
          </mxGeometry>
        </mxCell>
        <mxCell id="wc5Q7rNn-N-xNiQu3_dc-42" value="jobs" style="shape=table;startSize=30;container=1;collapsible=1;childLayout=tableLayout;fixedRows=1;rowLines=0;fontStyle=1;align=center;resizeLast=1;html=1;" parent="1" vertex="1">
          <mxGeometry x="-120" y="680" width="240" height="270" as="geometry" />
        </mxCell>
        <mxCell id="wc5Q7rNn-N-xNiQu3_dc-43" value="" style="shape=tableRow;horizontal=0;startSize=0;swimlaneHead=0;swimlaneBody=0;fillColor=none;collapsible=0;dropTarget=0;points=[[0,0.5],[1,0.5]];portConstraint=eastwest;top=0;left=0;right=0;bottom=1;" parent="wc5Q7rNn-N-xNiQu3_dc-42" vertex="1">
          <mxGeometry y="30" width="240" height="30" as="geometry" />
        </mxCell>
        <mxCell id="wc5Q7rNn-N-xNiQu3_dc-44" value="PK" style="shape=partialRectangle;connectable=0;fillColor=none;top=0;left=0;bottom=0;right=0;fontStyle=1;overflow=hidden;whiteSpace=wrap;html=1;" parent="wc5Q7rNn-N-xNiQu3_dc-43" vertex="1">
          <mxGeometry width="30" height="30" as="geometry">
            <mxRectangle width="30" height="30" as="alternateBounds" />
          </mxGeometry>
        </mxCell>
        <mxCell id="wc5Q7rNn-N-xNiQu3_dc-45" value="id UUID" style="shape=partialRectangle;connectable=0;fillColor=none;top=0;left=0;bottom=0;right=0;align=left;spacingLeft=6;fontStyle=5;overflow=hidden;whiteSpace=wrap;html=1;" parent="wc5Q7rNn-N-xNiQu3_dc-43" vertex="1">
          <mxGeometry x="30" width="210" height="30" as="geometry">
            <mxRectangle width="210" height="30" as="alternateBounds" />
          </mxGeometry>
        </mxCell>
        <mxCell id="wc5Q7rNn-N-xNiQu3_dc-46" value="" style="shape=tableRow;horizontal=0;startSize=0;swimlaneHead=0;swimlaneBody=0;fillColor=none;collapsible=0;dropTarget=0;points=[[0,0.5],[1,0.5]];portConstraint=eastwest;top=0;left=0;right=0;bottom=0;" parent="wc5Q7rNn-N-xNiQu3_dc-42" vertex="1">
          <mxGeometry y="60" width="240" height="30" as="geometry" />
        </mxCell>
        <mxCell id="wc5Q7rNn-N-xNiQu3_dc-47" value="FK" style="shape=partialRectangle;connectable=0;fillColor=none;top=0;left=0;bottom=0;right=0;editable=1;overflow=hidden;whiteSpace=wrap;html=1;" parent="wc5Q7rNn-N-xNiQu3_dc-46" vertex="1">
          <mxGeometry width="30" height="30" as="geometry">
            <mxRectangle width="30" height="30" as="alternateBounds" />
          </mxGeometry>
        </mxCell>
        <mxCell id="wc5Q7rNn-N-xNiQu3_dc-48" value="user_id UUID" style="shape=partialRectangle;connectable=0;fillColor=none;top=0;left=0;bottom=0;right=0;align=left;spacingLeft=6;overflow=hidden;whiteSpace=wrap;html=1;" parent="wc5Q7rNn-N-xNiQu3_dc-46" vertex="1">
          <mxGeometry x="30" width="210" height="30" as="geometry">
            <mxRectangle width="210" height="30" as="alternateBounds" />
          </mxGeometry>
        </mxCell>
        <mxCell id="wc5Q7rNn-N-xNiQu3_dc-49" value="" style="shape=tableRow;horizontal=0;startSize=0;swimlaneHead=0;swimlaneBody=0;fillColor=none;collapsible=0;dropTarget=0;points=[[0,0.5],[1,0.5]];portConstraint=eastwest;top=0;left=0;right=0;bottom=0;" parent="wc5Q7rNn-N-xNiQu3_dc-42" vertex="1">
          <mxGeometry y="90" width="240" height="30" as="geometry" />
        </mxCell>
        <mxCell id="wc5Q7rNn-N-xNiQu3_dc-50" value="" style="shape=partialRectangle;connectable=0;fillColor=none;top=0;left=0;bottom=0;right=0;editable=1;overflow=hidden;whiteSpace=wrap;html=1;" parent="wc5Q7rNn-N-xNiQu3_dc-49" vertex="1">
          <mxGeometry width="30" height="30" as="geometry">
            <mxRectangle width="30" height="30" as="alternateBounds" />
          </mxGeometry>
        </mxCell>
        <mxCell id="wc5Q7rNn-N-xNiQu3_dc-51" value="title varchar(255) NOT NULL" style="shape=partialRectangle;connectable=0;fillColor=none;top=0;left=0;bottom=0;right=0;align=left;spacingLeft=6;overflow=hidden;whiteSpace=wrap;html=1;" parent="wc5Q7rNn-N-xNiQu3_dc-49" vertex="1">
          <mxGeometry x="30" width="210" height="30" as="geometry">
            <mxRectangle width="210" height="30" as="alternateBounds" />
          </mxGeometry>
        </mxCell>
        <mxCell id="wc5Q7rNn-N-xNiQu3_dc-52" value="" style="shape=tableRow;horizontal=0;startSize=0;swimlaneHead=0;swimlaneBody=0;fillColor=none;collapsible=0;dropTarget=0;points=[[0,0.5],[1,0.5]];portConstraint=eastwest;top=0;left=0;right=0;bottom=0;" parent="wc5Q7rNn-N-xNiQu3_dc-42" vertex="1">
          <mxGeometry y="120" width="240" height="30" as="geometry" />
        </mxCell>
        <mxCell id="wc5Q7rNn-N-xNiQu3_dc-53" value="" style="shape=partialRectangle;connectable=0;fillColor=none;top=0;left=0;bottom=0;right=0;editable=1;overflow=hidden;whiteSpace=wrap;html=1;" parent="wc5Q7rNn-N-xNiQu3_dc-52" vertex="1">
          <mxGeometry width="30" height="30" as="geometry">
            <mxRectangle width="30" height="30" as="alternateBounds" />
          </mxGeometry>
        </mxCell>
        <mxCell id="wc5Q7rNn-N-xNiQu3_dc-54" value="description text NOT NULL" style="shape=partialRectangle;connectable=0;fillColor=none;top=0;left=0;bottom=0;right=0;align=left;spacingLeft=6;overflow=hidden;whiteSpace=wrap;html=1;" parent="wc5Q7rNn-N-xNiQu3_dc-52" vertex="1">
          <mxGeometry x="30" width="210" height="30" as="geometry">
            <mxRectangle width="210" height="30" as="alternateBounds" />
          </mxGeometry>
        </mxCell>
        <mxCell id="wc5Q7rNn-N-xNiQu3_dc-55" value="" style="shape=tableRow;horizontal=0;startSize=0;swimlaneHead=0;swimlaneBody=0;fillColor=none;collapsible=0;dropTarget=0;points=[[0,0.5],[1,0.5]];portConstraint=eastwest;top=0;left=0;right=0;bottom=0;" parent="wc5Q7rNn-N-xNiQu3_dc-42" vertex="1">
          <mxGeometry y="150" width="240" height="30" as="geometry" />
        </mxCell>
        <mxCell id="wc5Q7rNn-N-xNiQu3_dc-56" value="" style="shape=partialRectangle;connectable=0;fillColor=none;top=0;left=0;bottom=0;right=0;editable=1;overflow=hidden;whiteSpace=wrap;html=1;" parent="wc5Q7rNn-N-xNiQu3_dc-55" vertex="1">
          <mxGeometry width="30" height="30" as="geometry">
            <mxRectangle width="30" height="30" as="alternateBounds" />
          </mxGeometry>
        </mxCell>
        <mxCell id="wc5Q7rNn-N-xNiQu3_dc-57" value="interval timestamp NOT NULL" style="shape=partialRectangle;connectable=0;fillColor=none;top=0;left=0;bottom=0;right=0;align=left;spacingLeft=6;overflow=hidden;whiteSpace=wrap;html=1;" parent="wc5Q7rNn-N-xNiQu3_dc-55" vertex="1">
          <mxGeometry x="30" width="210" height="30" as="geometry">
            <mxRectangle width="210" height="30" as="alternateBounds" />
          </mxGeometry>
        </mxCell>
        <mxCell id="wc5Q7rNn-N-xNiQu3_dc-58" value="" style="shape=tableRow;horizontal=0;startSize=0;swimlaneHead=0;swimlaneBody=0;fillColor=none;collapsible=0;dropTarget=0;points=[[0,0.5],[1,0.5]];portConstraint=eastwest;top=0;left=0;right=0;bottom=0;" parent="wc5Q7rNn-N-xNiQu3_dc-42" vertex="1">
          <mxGeometry y="180" width="240" height="30" as="geometry" />
        </mxCell>
        <mxCell id="wc5Q7rNn-N-xNiQu3_dc-59" value="" style="shape=partialRectangle;connectable=0;fillColor=none;top=0;left=0;bottom=0;right=0;editable=1;overflow=hidden;whiteSpace=wrap;html=1;" parent="wc5Q7rNn-N-xNiQu3_dc-58" vertex="1">
          <mxGeometry width="30" height="30" as="geometry">
            <mxRectangle width="30" height="30" as="alternateBounds" />
          </mxGeometry>
        </mxCell>
        <mxCell id="wc5Q7rNn-N-xNiQu3_dc-60" value="hadiah varchar(255) NOT NULL" style="shape=partialRectangle;connectable=0;fillColor=none;top=0;left=0;bottom=0;right=0;align=left;spacingLeft=6;overflow=hidden;whiteSpace=wrap;html=1;" parent="wc5Q7rNn-N-xNiQu3_dc-58" vertex="1">
          <mxGeometry x="30" width="210" height="30" as="geometry">
            <mxRectangle width="210" height="30" as="alternateBounds" />
          </mxGeometry>
        </mxCell>
        <mxCell id="q7Uk0JzoAxezMymjL-A8-65" value="" style="shape=tableRow;horizontal=0;startSize=0;swimlaneHead=0;swimlaneBody=0;fillColor=none;collapsible=0;dropTarget=0;points=[[0,0.5],[1,0.5]];portConstraint=eastwest;top=0;left=0;right=0;bottom=0;" vertex="1" parent="wc5Q7rNn-N-xNiQu3_dc-42">
          <mxGeometry y="210" width="240" height="30" as="geometry" />
        </mxCell>
        <mxCell id="q7Uk0JzoAxezMymjL-A8-66" value="" style="shape=partialRectangle;connectable=0;fillColor=none;top=0;left=0;bottom=0;right=0;editable=1;overflow=hidden;whiteSpace=wrap;html=1;" vertex="1" parent="q7Uk0JzoAxezMymjL-A8-65">
          <mxGeometry width="30" height="30" as="geometry">
            <mxRectangle width="30" height="30" as="alternateBounds" />
          </mxGeometry>
        </mxCell>
        <mxCell id="q7Uk0JzoAxezMymjL-A8-67" value="file varchar(255) NOT NULL" style="shape=partialRectangle;connectable=0;fillColor=none;top=0;left=0;bottom=0;right=0;align=left;spacingLeft=6;overflow=hidden;whiteSpace=wrap;html=1;" vertex="1" parent="q7Uk0JzoAxezMymjL-A8-65">
          <mxGeometry x="30" width="210" height="30" as="geometry">
            <mxRectangle width="210" height="30" as="alternateBounds" />
          </mxGeometry>
        </mxCell>
        <mxCell id="q7Uk0JzoAxezMymjL-A8-159" value="" style="shape=tableRow;horizontal=0;startSize=0;swimlaneHead=0;swimlaneBody=0;fillColor=none;collapsible=0;dropTarget=0;points=[[0,0.5],[1,0.5]];portConstraint=eastwest;top=0;left=0;right=0;bottom=0;" vertex="1" parent="wc5Q7rNn-N-xNiQu3_dc-42">
          <mxGeometry y="240" width="240" height="30" as="geometry" />
        </mxCell>
        <mxCell id="q7Uk0JzoAxezMymjL-A8-160" value="" style="shape=partialRectangle;connectable=0;fillColor=none;top=0;left=0;bottom=0;right=0;editable=1;overflow=hidden;whiteSpace=wrap;html=1;" vertex="1" parent="q7Uk0JzoAxezMymjL-A8-159">
          <mxGeometry width="30" height="30" as="geometry">
            <mxRectangle width="30" height="30" as="alternateBounds" />
          </mxGeometry>
        </mxCell>
        <mxCell id="q7Uk0JzoAxezMymjL-A8-161" value="tag varchar(255) NOT NULL" style="shape=partialRectangle;connectable=0;fillColor=none;top=0;left=0;bottom=0;right=0;align=left;spacingLeft=6;overflow=hidden;whiteSpace=wrap;html=1;" vertex="1" parent="q7Uk0JzoAxezMymjL-A8-159">
          <mxGeometry x="30" width="210" height="30" as="geometry">
            <mxRectangle width="210" height="30" as="alternateBounds" />
          </mxGeometry>
        </mxCell>
        <mxCell id="wc5Q7rNn-N-xNiQu3_dc-67" value="job_comments" style="shape=table;startSize=30;container=1;collapsible=1;childLayout=tableLayout;fixedRows=1;rowLines=0;fontStyle=1;align=center;resizeLast=1;html=1;" parent="1" vertex="1">
          <mxGeometry x="-400" y="560" width="199.99" height="150" as="geometry" />
        </mxCell>
        <mxCell id="wc5Q7rNn-N-xNiQu3_dc-68" value="" style="shape=tableRow;horizontal=0;startSize=0;swimlaneHead=0;swimlaneBody=0;fillColor=none;collapsible=0;dropTarget=0;points=[[0,0.5],[1,0.5]];portConstraint=eastwest;top=0;left=0;right=0;bottom=1;" parent="wc5Q7rNn-N-xNiQu3_dc-67" vertex="1">
          <mxGeometry y="30" width="199.99" height="30" as="geometry" />
        </mxCell>
        <mxCell id="wc5Q7rNn-N-xNiQu3_dc-69" value="PK" style="shape=partialRectangle;connectable=0;fillColor=none;top=0;left=0;bottom=0;right=0;fontStyle=1;overflow=hidden;whiteSpace=wrap;html=1;" parent="wc5Q7rNn-N-xNiQu3_dc-68" vertex="1">
          <mxGeometry width="30" height="30" as="geometry">
            <mxRectangle width="30" height="30" as="alternateBounds" />
          </mxGeometry>
        </mxCell>
        <mxCell id="wc5Q7rNn-N-xNiQu3_dc-70" value="id UUID" style="shape=partialRectangle;connectable=0;fillColor=none;top=0;left=0;bottom=0;right=0;align=left;spacingLeft=6;fontStyle=5;overflow=hidden;whiteSpace=wrap;html=1;" parent="wc5Q7rNn-N-xNiQu3_dc-68" vertex="1">
          <mxGeometry x="30" width="169.99" height="30" as="geometry">
            <mxRectangle width="169.99" height="30" as="alternateBounds" />
          </mxGeometry>
        </mxCell>
        <mxCell id="wc5Q7rNn-N-xNiQu3_dc-96" value="" style="shape=tableRow;horizontal=0;startSize=0;swimlaneHead=0;swimlaneBody=0;fillColor=none;collapsible=0;dropTarget=0;points=[[0,0.5],[1,0.5]];portConstraint=eastwest;top=0;left=0;right=0;bottom=0;" parent="wc5Q7rNn-N-xNiQu3_dc-67" vertex="1">
          <mxGeometry y="60" width="199.99" height="30" as="geometry" />
        </mxCell>
        <mxCell id="wc5Q7rNn-N-xNiQu3_dc-97" value="FK" style="shape=partialRectangle;connectable=0;fillColor=none;top=0;left=0;bottom=0;right=0;editable=1;overflow=hidden;whiteSpace=wrap;html=1;" parent="wc5Q7rNn-N-xNiQu3_dc-96" vertex="1">
          <mxGeometry width="30" height="30" as="geometry">
            <mxRectangle width="30" height="30" as="alternateBounds" />
          </mxGeometry>
        </mxCell>
        <mxCell id="wc5Q7rNn-N-xNiQu3_dc-98" value="user_id UUID" style="shape=partialRectangle;connectable=0;fillColor=none;top=0;left=0;bottom=0;right=0;align=left;spacingLeft=6;overflow=hidden;whiteSpace=wrap;html=1;" parent="wc5Q7rNn-N-xNiQu3_dc-96" vertex="1">
          <mxGeometry x="30" width="169.99" height="30" as="geometry">
            <mxRectangle width="169.99" height="30" as="alternateBounds" />
          </mxGeometry>
        </mxCell>
        <mxCell id="wc5Q7rNn-N-xNiQu3_dc-108" value="" style="shape=tableRow;horizontal=0;startSize=0;swimlaneHead=0;swimlaneBody=0;fillColor=none;collapsible=0;dropTarget=0;points=[[0,0.5],[1,0.5]];portConstraint=eastwest;top=0;left=0;right=0;bottom=0;" parent="wc5Q7rNn-N-xNiQu3_dc-67" vertex="1">
          <mxGeometry y="90" width="199.99" height="30" as="geometry" />
        </mxCell>
        <mxCell id="wc5Q7rNn-N-xNiQu3_dc-109" value="FK" style="shape=partialRectangle;connectable=0;fillColor=none;top=0;left=0;bottom=0;right=0;editable=1;overflow=hidden;whiteSpace=wrap;html=1;" parent="wc5Q7rNn-N-xNiQu3_dc-108" vertex="1">
          <mxGeometry width="30" height="30" as="geometry">
            <mxRectangle width="30" height="30" as="alternateBounds" />
          </mxGeometry>
        </mxCell>
        <mxCell id="wc5Q7rNn-N-xNiQu3_dc-110" value="job_id UUID" style="shape=partialRectangle;connectable=0;fillColor=none;top=0;left=0;bottom=0;right=0;align=left;spacingLeft=6;overflow=hidden;whiteSpace=wrap;html=1;" parent="wc5Q7rNn-N-xNiQu3_dc-108" vertex="1">
          <mxGeometry x="30" width="169.99" height="30" as="geometry">
            <mxRectangle width="169.99" height="30" as="alternateBounds" />
          </mxGeometry>
        </mxCell>
        <mxCell id="q7Uk0JzoAxezMymjL-A8-72" value="" style="shape=tableRow;horizontal=0;startSize=0;swimlaneHead=0;swimlaneBody=0;fillColor=none;collapsible=0;dropTarget=0;points=[[0,0.5],[1,0.5]];portConstraint=eastwest;top=0;left=0;right=0;bottom=0;" vertex="1" parent="wc5Q7rNn-N-xNiQu3_dc-67">
          <mxGeometry y="120" width="199.99" height="30" as="geometry" />
        </mxCell>
        <mxCell id="q7Uk0JzoAxezMymjL-A8-73" value="" style="shape=partialRectangle;connectable=0;fillColor=none;top=0;left=0;bottom=0;right=0;editable=1;overflow=hidden;whiteSpace=wrap;html=1;" vertex="1" parent="q7Uk0JzoAxezMymjL-A8-72">
          <mxGeometry width="30" height="30" as="geometry">
            <mxRectangle width="30" height="30" as="alternateBounds" />
          </mxGeometry>
        </mxCell>
        <mxCell id="q7Uk0JzoAxezMymjL-A8-74" value="message text NOT NULL" style="shape=partialRectangle;connectable=0;fillColor=none;top=0;left=0;bottom=0;right=0;align=left;spacingLeft=6;overflow=hidden;whiteSpace=wrap;html=1;" vertex="1" parent="q7Uk0JzoAxezMymjL-A8-72">
          <mxGeometry x="30" width="169.99" height="30" as="geometry">
            <mxRectangle width="169.99" height="30" as="alternateBounds" />
          </mxGeometry>
        </mxCell>
        <mxCell id="wc5Q7rNn-N-xNiQu3_dc-115" value="job_replies" style="shape=table;startSize=30;container=1;collapsible=1;childLayout=tableLayout;fixedRows=1;rowLines=0;fontStyle=1;align=center;resizeLast=1;html=1;" parent="1" vertex="1">
          <mxGeometry x="-400" y="800" width="199.99" height="180" as="geometry" />
        </mxCell>
        <mxCell id="wc5Q7rNn-N-xNiQu3_dc-116" value="" style="shape=tableRow;horizontal=0;startSize=0;swimlaneHead=0;swimlaneBody=0;fillColor=none;collapsible=0;dropTarget=0;points=[[0,0.5],[1,0.5]];portConstraint=eastwest;top=0;left=0;right=0;bottom=1;" parent="wc5Q7rNn-N-xNiQu3_dc-115" vertex="1">
          <mxGeometry y="30" width="199.99" height="30" as="geometry" />
        </mxCell>
        <mxCell id="wc5Q7rNn-N-xNiQu3_dc-117" value="PK" style="shape=partialRectangle;connectable=0;fillColor=none;top=0;left=0;bottom=0;right=0;fontStyle=1;overflow=hidden;whiteSpace=wrap;html=1;" parent="wc5Q7rNn-N-xNiQu3_dc-116" vertex="1">
          <mxGeometry width="30" height="30" as="geometry">
            <mxRectangle width="30" height="30" as="alternateBounds" />
          </mxGeometry>
        </mxCell>
        <mxCell id="wc5Q7rNn-N-xNiQu3_dc-118" value="id UUID" style="shape=partialRectangle;connectable=0;fillColor=none;top=0;left=0;bottom=0;right=0;align=left;spacingLeft=6;fontStyle=5;overflow=hidden;whiteSpace=wrap;html=1;" parent="wc5Q7rNn-N-xNiQu3_dc-116" vertex="1">
          <mxGeometry x="30" width="169.99" height="30" as="geometry">
            <mxRectangle width="169.99" height="30" as="alternateBounds" />
          </mxGeometry>
        </mxCell>
        <mxCell id="wc5Q7rNn-N-xNiQu3_dc-119" value="" style="shape=tableRow;horizontal=0;startSize=0;swimlaneHead=0;swimlaneBody=0;fillColor=none;collapsible=0;dropTarget=0;points=[[0,0.5],[1,0.5]];portConstraint=eastwest;top=0;left=0;right=0;bottom=0;" parent="wc5Q7rNn-N-xNiQu3_dc-115" vertex="1">
          <mxGeometry y="60" width="199.99" height="30" as="geometry" />
        </mxCell>
        <mxCell id="wc5Q7rNn-N-xNiQu3_dc-120" value="FK" style="shape=partialRectangle;connectable=0;fillColor=none;top=0;left=0;bottom=0;right=0;editable=1;overflow=hidden;whiteSpace=wrap;html=1;" parent="wc5Q7rNn-N-xNiQu3_dc-119" vertex="1">
          <mxGeometry width="30" height="30" as="geometry">
            <mxRectangle width="30" height="30" as="alternateBounds" />
          </mxGeometry>
        </mxCell>
        <mxCell id="wc5Q7rNn-N-xNiQu3_dc-121" value="user_id UUID" style="shape=partialRectangle;connectable=0;fillColor=none;top=0;left=0;bottom=0;right=0;align=left;spacingLeft=6;overflow=hidden;whiteSpace=wrap;html=1;" parent="wc5Q7rNn-N-xNiQu3_dc-119" vertex="1">
          <mxGeometry x="30" width="169.99" height="30" as="geometry">
            <mxRectangle width="169.99" height="30" as="alternateBounds" />
          </mxGeometry>
        </mxCell>
        <mxCell id="wc5Q7rNn-N-xNiQu3_dc-122" value="" style="shape=tableRow;horizontal=0;startSize=0;swimlaneHead=0;swimlaneBody=0;fillColor=none;collapsible=0;dropTarget=0;points=[[0,0.5],[1,0.5]];portConstraint=eastwest;top=0;left=0;right=0;bottom=0;" parent="wc5Q7rNn-N-xNiQu3_dc-115" vertex="1">
          <mxGeometry y="90" width="199.99" height="30" as="geometry" />
        </mxCell>
        <mxCell id="wc5Q7rNn-N-xNiQu3_dc-123" value="FK" style="shape=partialRectangle;connectable=0;fillColor=none;top=0;left=0;bottom=0;right=0;editable=1;overflow=hidden;whiteSpace=wrap;html=1;" parent="wc5Q7rNn-N-xNiQu3_dc-122" vertex="1">
          <mxGeometry width="30" height="30" as="geometry">
            <mxRectangle width="30" height="30" as="alternateBounds" />
          </mxGeometry>
        </mxCell>
        <mxCell id="wc5Q7rNn-N-xNiQu3_dc-124" value="job_id UUID" style="shape=partialRectangle;connectable=0;fillColor=none;top=0;left=0;bottom=0;right=0;align=left;spacingLeft=6;overflow=hidden;whiteSpace=wrap;html=1;" parent="wc5Q7rNn-N-xNiQu3_dc-122" vertex="1">
          <mxGeometry x="30" width="169.99" height="30" as="geometry">
            <mxRectangle width="169.99" height="30" as="alternateBounds" />
          </mxGeometry>
        </mxCell>
        <mxCell id="wc5Q7rNn-N-xNiQu3_dc-125" value="" style="shape=tableRow;horizontal=0;startSize=0;swimlaneHead=0;swimlaneBody=0;fillColor=none;collapsible=0;dropTarget=0;points=[[0,0.5],[1,0.5]];portConstraint=eastwest;top=0;left=0;right=0;bottom=0;" parent="wc5Q7rNn-N-xNiQu3_dc-115" vertex="1">
          <mxGeometry y="120" width="199.99" height="30" as="geometry" />
        </mxCell>
        <mxCell id="wc5Q7rNn-N-xNiQu3_dc-126" value="FK" style="shape=partialRectangle;connectable=0;fillColor=none;top=0;left=0;bottom=0;right=0;editable=1;overflow=hidden;whiteSpace=wrap;html=1;" parent="wc5Q7rNn-N-xNiQu3_dc-125" vertex="1">
          <mxGeometry width="30" height="30" as="geometry">
            <mxRectangle width="30" height="30" as="alternateBounds" />
          </mxGeometry>
        </mxCell>
        <mxCell id="wc5Q7rNn-N-xNiQu3_dc-127" value="job_comment_id UUID" style="shape=partialRectangle;connectable=0;fillColor=none;top=0;left=0;bottom=0;right=0;align=left;spacingLeft=6;overflow=hidden;whiteSpace=wrap;html=1;" parent="wc5Q7rNn-N-xNiQu3_dc-125" vertex="1">
          <mxGeometry x="30" width="169.99" height="30" as="geometry">
            <mxRectangle width="169.99" height="30" as="alternateBounds" />
          </mxGeometry>
        </mxCell>
        <mxCell id="q7Uk0JzoAxezMymjL-A8-33" value="" style="shape=tableRow;horizontal=0;startSize=0;swimlaneHead=0;swimlaneBody=0;fillColor=none;collapsible=0;dropTarget=0;points=[[0,0.5],[1,0.5]];portConstraint=eastwest;top=0;left=0;right=0;bottom=0;" vertex="1" parent="wc5Q7rNn-N-xNiQu3_dc-115">
          <mxGeometry y="150" width="199.99" height="30" as="geometry" />
        </mxCell>
        <mxCell id="q7Uk0JzoAxezMymjL-A8-34" value="" style="shape=partialRectangle;connectable=0;fillColor=none;top=0;left=0;bottom=0;right=0;editable=1;overflow=hidden;whiteSpace=wrap;html=1;" vertex="1" parent="q7Uk0JzoAxezMymjL-A8-33">
          <mxGeometry width="30" height="30" as="geometry">
            <mxRectangle width="30" height="30" as="alternateBounds" />
          </mxGeometry>
        </mxCell>
        <mxCell id="q7Uk0JzoAxezMymjL-A8-35" value="message text NOT NULL" style="shape=partialRectangle;connectable=0;fillColor=none;top=0;left=0;bottom=0;right=0;align=left;spacingLeft=6;overflow=hidden;whiteSpace=wrap;html=1;" vertex="1" parent="q7Uk0JzoAxezMymjL-A8-33">
          <mxGeometry x="30" width="169.99" height="30" as="geometry">
            <mxRectangle width="169.99" height="30" as="alternateBounds" />
          </mxGeometry>
        </mxCell>
        <mxCell id="q7Uk0JzoAxezMymjL-A8-6" value="results" style="shape=table;startSize=30;container=1;collapsible=1;childLayout=tableLayout;fixedRows=1;rowLines=0;fontStyle=1;align=center;resizeLast=1;html=1;" vertex="1" parent="1">
          <mxGeometry x="560" y="680" width="199.99" height="210" as="geometry" />
        </mxCell>
        <mxCell id="q7Uk0JzoAxezMymjL-A8-7" value="" style="shape=tableRow;horizontal=0;startSize=0;swimlaneHead=0;swimlaneBody=0;fillColor=none;collapsible=0;dropTarget=0;points=[[0,0.5],[1,0.5]];portConstraint=eastwest;top=0;left=0;right=0;bottom=1;" vertex="1" parent="q7Uk0JzoAxezMymjL-A8-6">
          <mxGeometry y="30" width="199.99" height="30" as="geometry" />
        </mxCell>
        <mxCell id="q7Uk0JzoAxezMymjL-A8-8" value="PK" style="shape=partialRectangle;connectable=0;fillColor=none;top=0;left=0;bottom=0;right=0;fontStyle=1;overflow=hidden;whiteSpace=wrap;html=1;" vertex="1" parent="q7Uk0JzoAxezMymjL-A8-7">
          <mxGeometry width="30" height="30" as="geometry">
            <mxRectangle width="30" height="30" as="alternateBounds" />
          </mxGeometry>
        </mxCell>
        <mxCell id="q7Uk0JzoAxezMymjL-A8-9" value="id UUID" style="shape=partialRectangle;connectable=0;fillColor=none;top=0;left=0;bottom=0;right=0;align=left;spacingLeft=6;fontStyle=5;overflow=hidden;whiteSpace=wrap;html=1;" vertex="1" parent="q7Uk0JzoAxezMymjL-A8-7">
          <mxGeometry x="30" width="169.99" height="30" as="geometry">
            <mxRectangle width="169.99" height="30" as="alternateBounds" />
          </mxGeometry>
        </mxCell>
        <mxCell id="q7Uk0JzoAxezMymjL-A8-25" value="" style="shape=tableRow;horizontal=0;startSize=0;swimlaneHead=0;swimlaneBody=0;fillColor=none;collapsible=0;dropTarget=0;points=[[0,0.5],[1,0.5]];portConstraint=eastwest;top=0;left=0;right=0;bottom=0;" vertex="1" parent="q7Uk0JzoAxezMymjL-A8-6">
          <mxGeometry y="60" width="199.99" height="30" as="geometry" />
        </mxCell>
        <mxCell id="q7Uk0JzoAxezMymjL-A8-26" value="FK" style="shape=partialRectangle;connectable=0;fillColor=none;top=0;left=0;bottom=0;right=0;editable=1;overflow=hidden;whiteSpace=wrap;html=1;" vertex="1" parent="q7Uk0JzoAxezMymjL-A8-25">
          <mxGeometry width="30" height="30" as="geometry">
            <mxRectangle width="30" height="30" as="alternateBounds" />
          </mxGeometry>
        </mxCell>
        <mxCell id="q7Uk0JzoAxezMymjL-A8-27" value="user_id UUID" style="shape=partialRectangle;connectable=0;fillColor=none;top=0;left=0;bottom=0;right=0;align=left;spacingLeft=6;overflow=hidden;whiteSpace=wrap;html=1;" vertex="1" parent="q7Uk0JzoAxezMymjL-A8-25">
          <mxGeometry x="30" width="169.99" height="30" as="geometry">
            <mxRectangle width="169.99" height="30" as="alternateBounds" />
          </mxGeometry>
        </mxCell>
        <mxCell id="q7Uk0JzoAxezMymjL-A8-29" value="" style="shape=tableRow;horizontal=0;startSize=0;swimlaneHead=0;swimlaneBody=0;fillColor=none;collapsible=0;dropTarget=0;points=[[0,0.5],[1,0.5]];portConstraint=eastwest;top=0;left=0;right=0;bottom=0;" vertex="1" parent="q7Uk0JzoAxezMymjL-A8-6">
          <mxGeometry y="90" width="199.99" height="30" as="geometry" />
        </mxCell>
        <mxCell id="q7Uk0JzoAxezMymjL-A8-30" value="FK" style="shape=partialRectangle;connectable=0;fillColor=none;top=0;left=0;bottom=0;right=0;editable=1;overflow=hidden;whiteSpace=wrap;html=1;" vertex="1" parent="q7Uk0JzoAxezMymjL-A8-29">
          <mxGeometry width="30" height="30" as="geometry">
            <mxRectangle width="30" height="30" as="alternateBounds" />
          </mxGeometry>
        </mxCell>
        <mxCell id="q7Uk0JzoAxezMymjL-A8-31" value="job_id UUID" style="shape=partialRectangle;connectable=0;fillColor=none;top=0;left=0;bottom=0;right=0;align=left;spacingLeft=6;overflow=hidden;whiteSpace=wrap;html=1;" vertex="1" parent="q7Uk0JzoAxezMymjL-A8-29">
          <mxGeometry x="30" width="169.99" height="30" as="geometry">
            <mxRectangle width="169.99" height="30" as="alternateBounds" />
          </mxGeometry>
        </mxCell>
        <mxCell id="q7Uk0JzoAxezMymjL-A8-81" value="" style="shape=tableRow;horizontal=0;startSize=0;swimlaneHead=0;swimlaneBody=0;fillColor=none;collapsible=0;dropTarget=0;points=[[0,0.5],[1,0.5]];portConstraint=eastwest;top=0;left=0;right=0;bottom=0;" vertex="1" parent="q7Uk0JzoAxezMymjL-A8-6">
          <mxGeometry y="120" width="199.99" height="30" as="geometry" />
        </mxCell>
        <mxCell id="q7Uk0JzoAxezMymjL-A8-82" value="" style="shape=partialRectangle;connectable=0;fillColor=none;top=0;left=0;bottom=0;right=0;editable=1;overflow=hidden;whiteSpace=wrap;html=1;" vertex="1" parent="q7Uk0JzoAxezMymjL-A8-81">
          <mxGeometry width="30" height="30" as="geometry">
            <mxRectangle width="30" height="30" as="alternateBounds" />
          </mxGeometry>
        </mxCell>
        <mxCell id="q7Uk0JzoAxezMymjL-A8-83" value="title varchar(255) NOT NULL" style="shape=partialRectangle;connectable=0;fillColor=none;top=0;left=0;bottom=0;right=0;align=left;spacingLeft=6;overflow=hidden;whiteSpace=wrap;html=1;" vertex="1" parent="q7Uk0JzoAxezMymjL-A8-81">
          <mxGeometry x="30" width="169.99" height="30" as="geometry">
            <mxRectangle width="169.99" height="30" as="alternateBounds" />
          </mxGeometry>
        </mxCell>
        <mxCell id="q7Uk0JzoAxezMymjL-A8-84" value="" style="shape=tableRow;horizontal=0;startSize=0;swimlaneHead=0;swimlaneBody=0;fillColor=none;collapsible=0;dropTarget=0;points=[[0,0.5],[1,0.5]];portConstraint=eastwest;top=0;left=0;right=0;bottom=0;" vertex="1" parent="q7Uk0JzoAxezMymjL-A8-6">
          <mxGeometry y="150" width="199.99" height="30" as="geometry" />
        </mxCell>
        <mxCell id="q7Uk0JzoAxezMymjL-A8-85" value="" style="shape=partialRectangle;connectable=0;fillColor=none;top=0;left=0;bottom=0;right=0;editable=1;overflow=hidden;whiteSpace=wrap;html=1;" vertex="1" parent="q7Uk0JzoAxezMymjL-A8-84">
          <mxGeometry width="30" height="30" as="geometry">
            <mxRectangle width="30" height="30" as="alternateBounds" />
          </mxGeometry>
        </mxCell>
        <mxCell id="q7Uk0JzoAxezMymjL-A8-86" value="description text NOT NULL" style="shape=partialRectangle;connectable=0;fillColor=none;top=0;left=0;bottom=0;right=0;align=left;spacingLeft=6;overflow=hidden;whiteSpace=wrap;html=1;" vertex="1" parent="q7Uk0JzoAxezMymjL-A8-84">
          <mxGeometry x="30" width="169.99" height="30" as="geometry">
            <mxRectangle width="169.99" height="30" as="alternateBounds" />
          </mxGeometry>
        </mxCell>
        <mxCell id="q7Uk0JzoAxezMymjL-A8-87" value="" style="shape=tableRow;horizontal=0;startSize=0;swimlaneHead=0;swimlaneBody=0;fillColor=none;collapsible=0;dropTarget=0;points=[[0,0.5],[1,0.5]];portConstraint=eastwest;top=0;left=0;right=0;bottom=0;" vertex="1" parent="q7Uk0JzoAxezMymjL-A8-6">
          <mxGeometry y="180" width="199.99" height="30" as="geometry" />
        </mxCell>
        <mxCell id="q7Uk0JzoAxezMymjL-A8-88" value="" style="shape=partialRectangle;connectable=0;fillColor=none;top=0;left=0;bottom=0;right=0;editable=1;overflow=hidden;whiteSpace=wrap;html=1;" vertex="1" parent="q7Uk0JzoAxezMymjL-A8-87">
          <mxGeometry width="30" height="30" as="geometry">
            <mxRectangle width="30" height="30" as="alternateBounds" />
          </mxGeometry>
        </mxCell>
        <mxCell id="q7Uk0JzoAxezMymjL-A8-89" value="file varchar(255) NOT NULL" style="shape=partialRectangle;connectable=0;fillColor=none;top=0;left=0;bottom=0;right=0;align=left;spacingLeft=6;overflow=hidden;whiteSpace=wrap;html=1;" vertex="1" parent="q7Uk0JzoAxezMymjL-A8-87">
          <mxGeometry x="30" width="169.99" height="30" as="geometry">
            <mxRectangle width="169.99" height="30" as="alternateBounds" />
          </mxGeometry>
        </mxCell>
        <mxCell id="q7Uk0JzoAxezMymjL-A8-36" value="result_comments" style="shape=table;startSize=30;container=1;collapsible=1;childLayout=tableLayout;fixedRows=1;rowLines=0;fontStyle=1;align=center;resizeLast=1;html=1;" vertex="1" parent="1">
          <mxGeometry x="840" y="560" width="199.99" height="150" as="geometry" />
        </mxCell>
        <mxCell id="q7Uk0JzoAxezMymjL-A8-37" value="" style="shape=tableRow;horizontal=0;startSize=0;swimlaneHead=0;swimlaneBody=0;fillColor=none;collapsible=0;dropTarget=0;points=[[0,0.5],[1,0.5]];portConstraint=eastwest;top=0;left=0;right=0;bottom=1;" vertex="1" parent="q7Uk0JzoAxezMymjL-A8-36">
          <mxGeometry y="30" width="199.99" height="30" as="geometry" />
        </mxCell>
        <mxCell id="q7Uk0JzoAxezMymjL-A8-38" value="PK" style="shape=partialRectangle;connectable=0;fillColor=none;top=0;left=0;bottom=0;right=0;fontStyle=1;overflow=hidden;whiteSpace=wrap;html=1;" vertex="1" parent="q7Uk0JzoAxezMymjL-A8-37">
          <mxGeometry width="30" height="30" as="geometry">
            <mxRectangle width="30" height="30" as="alternateBounds" />
          </mxGeometry>
        </mxCell>
        <mxCell id="q7Uk0JzoAxezMymjL-A8-39" value="id UUID" style="shape=partialRectangle;connectable=0;fillColor=none;top=0;left=0;bottom=0;right=0;align=left;spacingLeft=6;fontStyle=5;overflow=hidden;whiteSpace=wrap;html=1;" vertex="1" parent="q7Uk0JzoAxezMymjL-A8-37">
          <mxGeometry x="30" width="169.99" height="30" as="geometry">
            <mxRectangle width="169.99" height="30" as="alternateBounds" />
          </mxGeometry>
        </mxCell>
        <mxCell id="q7Uk0JzoAxezMymjL-A8-43" value="" style="shape=tableRow;horizontal=0;startSize=0;swimlaneHead=0;swimlaneBody=0;fillColor=none;collapsible=0;dropTarget=0;points=[[0,0.5],[1,0.5]];portConstraint=eastwest;top=0;left=0;right=0;bottom=0;" vertex="1" parent="q7Uk0JzoAxezMymjL-A8-36">
          <mxGeometry y="60" width="199.99" height="30" as="geometry" />
        </mxCell>
        <mxCell id="q7Uk0JzoAxezMymjL-A8-44" value="FK" style="shape=partialRectangle;connectable=0;fillColor=none;top=0;left=0;bottom=0;right=0;editable=1;overflow=hidden;whiteSpace=wrap;html=1;" vertex="1" parent="q7Uk0JzoAxezMymjL-A8-43">
          <mxGeometry width="30" height="30" as="geometry">
            <mxRectangle width="30" height="30" as="alternateBounds" />
          </mxGeometry>
        </mxCell>
        <mxCell id="q7Uk0JzoAxezMymjL-A8-45" value="user_id UUID" style="shape=partialRectangle;connectable=0;fillColor=none;top=0;left=0;bottom=0;right=0;align=left;spacingLeft=6;overflow=hidden;whiteSpace=wrap;html=1;" vertex="1" parent="q7Uk0JzoAxezMymjL-A8-43">
          <mxGeometry x="30" width="169.99" height="30" as="geometry">
            <mxRectangle width="169.99" height="30" as="alternateBounds" />
          </mxGeometry>
        </mxCell>
        <mxCell id="q7Uk0JzoAxezMymjL-A8-46" value="" style="shape=tableRow;horizontal=0;startSize=0;swimlaneHead=0;swimlaneBody=0;fillColor=none;collapsible=0;dropTarget=0;points=[[0,0.5],[1,0.5]];portConstraint=eastwest;top=0;left=0;right=0;bottom=0;" vertex="1" parent="q7Uk0JzoAxezMymjL-A8-36">
          <mxGeometry y="90" width="199.99" height="30" as="geometry" />
        </mxCell>
        <mxCell id="q7Uk0JzoAxezMymjL-A8-47" value="FK" style="shape=partialRectangle;connectable=0;fillColor=none;top=0;left=0;bottom=0;right=0;editable=1;overflow=hidden;whiteSpace=wrap;html=1;" vertex="1" parent="q7Uk0JzoAxezMymjL-A8-46">
          <mxGeometry width="30" height="30" as="geometry">
            <mxRectangle width="30" height="30" as="alternateBounds" />
          </mxGeometry>
        </mxCell>
        <mxCell id="q7Uk0JzoAxezMymjL-A8-48" value="result_id UUID" style="shape=partialRectangle;connectable=0;fillColor=none;top=0;left=0;bottom=0;right=0;align=left;spacingLeft=6;overflow=hidden;whiteSpace=wrap;html=1;" vertex="1" parent="q7Uk0JzoAxezMymjL-A8-46">
          <mxGeometry x="30" width="169.99" height="30" as="geometry">
            <mxRectangle width="169.99" height="30" as="alternateBounds" />
          </mxGeometry>
        </mxCell>
        <mxCell id="q7Uk0JzoAxezMymjL-A8-93" value="" style="shape=tableRow;horizontal=0;startSize=0;swimlaneHead=0;swimlaneBody=0;fillColor=none;collapsible=0;dropTarget=0;points=[[0,0.5],[1,0.5]];portConstraint=eastwest;top=0;left=0;right=0;bottom=0;" vertex="1" parent="q7Uk0JzoAxezMymjL-A8-36">
          <mxGeometry y="120" width="199.99" height="30" as="geometry" />
        </mxCell>
        <mxCell id="q7Uk0JzoAxezMymjL-A8-94" value="" style="shape=partialRectangle;connectable=0;fillColor=none;top=0;left=0;bottom=0;right=0;editable=1;overflow=hidden;whiteSpace=wrap;html=1;" vertex="1" parent="q7Uk0JzoAxezMymjL-A8-93">
          <mxGeometry width="30" height="30" as="geometry">
            <mxRectangle width="30" height="30" as="alternateBounds" />
          </mxGeometry>
        </mxCell>
        <mxCell id="q7Uk0JzoAxezMymjL-A8-95" value="message text NOT NULL" style="shape=partialRectangle;connectable=0;fillColor=none;top=0;left=0;bottom=0;right=0;align=left;spacingLeft=6;overflow=hidden;whiteSpace=wrap;html=1;" vertex="1" parent="q7Uk0JzoAxezMymjL-A8-93">
          <mxGeometry x="30" width="169.99" height="30" as="geometry">
            <mxRectangle width="169.99" height="30" as="alternateBounds" />
          </mxGeometry>
        </mxCell>
        <mxCell id="q7Uk0JzoAxezMymjL-A8-49" value="result_replies" style="shape=table;startSize=30;container=1;collapsible=1;childLayout=tableLayout;fixedRows=1;rowLines=0;fontStyle=1;align=center;resizeLast=1;html=1;" vertex="1" parent="1">
          <mxGeometry x="840" y="800" width="199.99" height="180" as="geometry" />
        </mxCell>
        <mxCell id="q7Uk0JzoAxezMymjL-A8-50" value="" style="shape=tableRow;horizontal=0;startSize=0;swimlaneHead=0;swimlaneBody=0;fillColor=none;collapsible=0;dropTarget=0;points=[[0,0.5],[1,0.5]];portConstraint=eastwest;top=0;left=0;right=0;bottom=1;" vertex="1" parent="q7Uk0JzoAxezMymjL-A8-49">
          <mxGeometry y="30" width="199.99" height="30" as="geometry" />
        </mxCell>
        <mxCell id="q7Uk0JzoAxezMymjL-A8-51" value="PK" style="shape=partialRectangle;connectable=0;fillColor=none;top=0;left=0;bottom=0;right=0;fontStyle=1;overflow=hidden;whiteSpace=wrap;html=1;" vertex="1" parent="q7Uk0JzoAxezMymjL-A8-50">
          <mxGeometry width="30" height="30" as="geometry">
            <mxRectangle width="30" height="30" as="alternateBounds" />
          </mxGeometry>
        </mxCell>
        <mxCell id="q7Uk0JzoAxezMymjL-A8-52" value="id UUID" style="shape=partialRectangle;connectable=0;fillColor=none;top=0;left=0;bottom=0;right=0;align=left;spacingLeft=6;fontStyle=5;overflow=hidden;whiteSpace=wrap;html=1;" vertex="1" parent="q7Uk0JzoAxezMymjL-A8-50">
          <mxGeometry x="30" width="169.99" height="30" as="geometry">
            <mxRectangle width="169.99" height="30" as="alternateBounds" />
          </mxGeometry>
        </mxCell>
        <mxCell id="q7Uk0JzoAxezMymjL-A8-56" value="" style="shape=tableRow;horizontal=0;startSize=0;swimlaneHead=0;swimlaneBody=0;fillColor=none;collapsible=0;dropTarget=0;points=[[0,0.5],[1,0.5]];portConstraint=eastwest;top=0;left=0;right=0;bottom=0;" vertex="1" parent="q7Uk0JzoAxezMymjL-A8-49">
          <mxGeometry y="60" width="199.99" height="30" as="geometry" />
        </mxCell>
        <mxCell id="q7Uk0JzoAxezMymjL-A8-57" value="FK" style="shape=partialRectangle;connectable=0;fillColor=none;top=0;left=0;bottom=0;right=0;editable=1;overflow=hidden;whiteSpace=wrap;html=1;" vertex="1" parent="q7Uk0JzoAxezMymjL-A8-56">
          <mxGeometry width="30" height="30" as="geometry">
            <mxRectangle width="30" height="30" as="alternateBounds" />
          </mxGeometry>
        </mxCell>
        <mxCell id="q7Uk0JzoAxezMymjL-A8-58" value="user_id UUID" style="shape=partialRectangle;connectable=0;fillColor=none;top=0;left=0;bottom=0;right=0;align=left;spacingLeft=6;overflow=hidden;whiteSpace=wrap;html=1;" vertex="1" parent="q7Uk0JzoAxezMymjL-A8-56">
          <mxGeometry x="30" width="169.99" height="30" as="geometry">
            <mxRectangle width="169.99" height="30" as="alternateBounds" />
          </mxGeometry>
        </mxCell>
        <mxCell id="q7Uk0JzoAxezMymjL-A8-59" value="" style="shape=tableRow;horizontal=0;startSize=0;swimlaneHead=0;swimlaneBody=0;fillColor=none;collapsible=0;dropTarget=0;points=[[0,0.5],[1,0.5]];portConstraint=eastwest;top=0;left=0;right=0;bottom=0;" vertex="1" parent="q7Uk0JzoAxezMymjL-A8-49">
          <mxGeometry y="90" width="199.99" height="30" as="geometry" />
        </mxCell>
        <mxCell id="q7Uk0JzoAxezMymjL-A8-60" value="FK" style="shape=partialRectangle;connectable=0;fillColor=none;top=0;left=0;bottom=0;right=0;editable=1;overflow=hidden;whiteSpace=wrap;html=1;" vertex="1" parent="q7Uk0JzoAxezMymjL-A8-59">
          <mxGeometry width="30" height="30" as="geometry">
            <mxRectangle width="30" height="30" as="alternateBounds" />
          </mxGeometry>
        </mxCell>
        <mxCell id="q7Uk0JzoAxezMymjL-A8-61" value="result_id UUID" style="shape=partialRectangle;connectable=0;fillColor=none;top=0;left=0;bottom=0;right=0;align=left;spacingLeft=6;overflow=hidden;whiteSpace=wrap;html=1;" vertex="1" parent="q7Uk0JzoAxezMymjL-A8-59">
          <mxGeometry x="30" width="169.99" height="30" as="geometry">
            <mxRectangle width="169.99" height="30" as="alternateBounds" />
          </mxGeometry>
        </mxCell>
        <mxCell id="q7Uk0JzoAxezMymjL-A8-62" value="" style="shape=tableRow;horizontal=0;startSize=0;swimlaneHead=0;swimlaneBody=0;fillColor=none;collapsible=0;dropTarget=0;points=[[0,0.5],[1,0.5]];portConstraint=eastwest;top=0;left=0;right=0;bottom=0;" vertex="1" parent="q7Uk0JzoAxezMymjL-A8-49">
          <mxGeometry y="120" width="199.99" height="30" as="geometry" />
        </mxCell>
        <mxCell id="q7Uk0JzoAxezMymjL-A8-63" value="FK" style="shape=partialRectangle;connectable=0;fillColor=none;top=0;left=0;bottom=0;right=0;editable=1;overflow=hidden;whiteSpace=wrap;html=1;" vertex="1" parent="q7Uk0JzoAxezMymjL-A8-62">
          <mxGeometry width="30" height="30" as="geometry">
            <mxRectangle width="30" height="30" as="alternateBounds" />
          </mxGeometry>
        </mxCell>
        <mxCell id="q7Uk0JzoAxezMymjL-A8-64" value="result_comment_id UUID" style="shape=partialRectangle;connectable=0;fillColor=none;top=0;left=0;bottom=0;right=0;align=left;spacingLeft=6;overflow=hidden;whiteSpace=wrap;html=1;" vertex="1" parent="q7Uk0JzoAxezMymjL-A8-62">
          <mxGeometry x="30" width="169.99" height="30" as="geometry">
            <mxRectangle width="169.99" height="30" as="alternateBounds" />
          </mxGeometry>
        </mxCell>
        <mxCell id="q7Uk0JzoAxezMymjL-A8-96" value="" style="shape=tableRow;horizontal=0;startSize=0;swimlaneHead=0;swimlaneBody=0;fillColor=none;collapsible=0;dropTarget=0;points=[[0,0.5],[1,0.5]];portConstraint=eastwest;top=0;left=0;right=0;bottom=0;" vertex="1" parent="q7Uk0JzoAxezMymjL-A8-49">
          <mxGeometry y="150" width="199.99" height="30" as="geometry" />
        </mxCell>
        <mxCell id="q7Uk0JzoAxezMymjL-A8-97" value="" style="shape=partialRectangle;connectable=0;fillColor=none;top=0;left=0;bottom=0;right=0;editable=1;overflow=hidden;whiteSpace=wrap;html=1;" vertex="1" parent="q7Uk0JzoAxezMymjL-A8-96">
          <mxGeometry width="30" height="30" as="geometry">
            <mxRectangle width="30" height="30" as="alternateBounds" />
          </mxGeometry>
        </mxCell>
        <mxCell id="q7Uk0JzoAxezMymjL-A8-98" value="message text NOT NULL" style="shape=partialRectangle;connectable=0;fillColor=none;top=0;left=0;bottom=0;right=0;align=left;spacingLeft=6;overflow=hidden;whiteSpace=wrap;html=1;" vertex="1" parent="q7Uk0JzoAxezMymjL-A8-96">
          <mxGeometry x="30" width="169.99" height="30" as="geometry">
            <mxRectangle width="169.99" height="30" as="alternateBounds" />
          </mxGeometry>
        </mxCell>
        <mxCell id="q7Uk0JzoAxezMymjL-A8-101" value="umkm" style="shape=table;startSize=30;container=1;collapsible=1;childLayout=tableLayout;fixedRows=1;rowLines=0;fontStyle=1;align=center;resizeLast=1;html=1;" vertex="1" parent="1">
          <mxGeometry x="39.99999999999999" y="220" width="200.01" height="120" as="geometry" />
        </mxCell>
        <mxCell id="q7Uk0JzoAxezMymjL-A8-102" value="" style="shape=tableRow;horizontal=0;startSize=0;swimlaneHead=0;swimlaneBody=0;fillColor=none;collapsible=0;dropTarget=0;points=[[0,0.5],[1,0.5]];portConstraint=eastwest;top=0;left=0;right=0;bottom=1;" vertex="1" parent="q7Uk0JzoAxezMymjL-A8-101">
          <mxGeometry y="30" width="200.01" height="30" as="geometry" />
        </mxCell>
        <mxCell id="q7Uk0JzoAxezMymjL-A8-103" value="PK" style="shape=partialRectangle;connectable=0;fillColor=none;top=0;left=0;bottom=0;right=0;fontStyle=1;overflow=hidden;whiteSpace=wrap;html=1;" vertex="1" parent="q7Uk0JzoAxezMymjL-A8-102">
          <mxGeometry width="30" height="30" as="geometry">
            <mxRectangle width="30" height="30" as="alternateBounds" />
          </mxGeometry>
        </mxCell>
        <mxCell id="q7Uk0JzoAxezMymjL-A8-104" value="id UUID" style="shape=partialRectangle;connectable=0;fillColor=none;top=0;left=0;bottom=0;right=0;align=left;spacingLeft=6;fontStyle=5;overflow=hidden;whiteSpace=wrap;html=1;" vertex="1" parent="q7Uk0JzoAxezMymjL-A8-102">
          <mxGeometry x="30" width="170.01" height="30" as="geometry">
            <mxRectangle width="170.01" height="30" as="alternateBounds" />
          </mxGeometry>
        </mxCell>
        <mxCell id="q7Uk0JzoAxezMymjL-A8-105" value="" style="shape=tableRow;horizontal=0;startSize=0;swimlaneHead=0;swimlaneBody=0;fillColor=none;collapsible=0;dropTarget=0;points=[[0,0.5],[1,0.5]];portConstraint=eastwest;top=0;left=0;right=0;bottom=0;" vertex="1" parent="q7Uk0JzoAxezMymjL-A8-101">
          <mxGeometry y="60" width="200.01" height="30" as="geometry" />
        </mxCell>
        <mxCell id="q7Uk0JzoAxezMymjL-A8-106" value="FK" style="shape=partialRectangle;connectable=0;fillColor=none;top=0;left=0;bottom=0;right=0;editable=1;overflow=hidden;whiteSpace=wrap;html=1;" vertex="1" parent="q7Uk0JzoAxezMymjL-A8-105">
          <mxGeometry width="30" height="30" as="geometry">
            <mxRectangle width="30" height="30" as="alternateBounds" />
          </mxGeometry>
        </mxCell>
        <mxCell id="q7Uk0JzoAxezMymjL-A8-107" value="user_id UUID" style="shape=partialRectangle;connectable=0;fillColor=none;top=0;left=0;bottom=0;right=0;align=left;spacingLeft=6;overflow=hidden;whiteSpace=wrap;html=1;" vertex="1" parent="q7Uk0JzoAxezMymjL-A8-105">
          <mxGeometry x="30" width="170.01" height="30" as="geometry">
            <mxRectangle width="170.01" height="30" as="alternateBounds" />
          </mxGeometry>
        </mxCell>
        <mxCell id="q7Uk0JzoAxezMymjL-A8-108" value="" style="shape=tableRow;horizontal=0;startSize=0;swimlaneHead=0;swimlaneBody=0;fillColor=none;collapsible=0;dropTarget=0;points=[[0,0.5],[1,0.5]];portConstraint=eastwest;top=0;left=0;right=0;bottom=0;" vertex="1" parent="q7Uk0JzoAxezMymjL-A8-101">
          <mxGeometry y="90" width="200.01" height="30" as="geometry" />
        </mxCell>
        <mxCell id="q7Uk0JzoAxezMymjL-A8-109" value="" style="shape=partialRectangle;connectable=0;fillColor=none;top=0;left=0;bottom=0;right=0;editable=1;overflow=hidden;whiteSpace=wrap;html=1;" vertex="1" parent="q7Uk0JzoAxezMymjL-A8-108">
          <mxGeometry width="30" height="30" as="geometry">
            <mxRectangle width="30" height="30" as="alternateBounds" />
          </mxGeometry>
        </mxCell>
        <mxCell id="q7Uk0JzoAxezMymjL-A8-110" value="verified boolean NOT NULL" style="shape=partialRectangle;connectable=0;fillColor=none;top=0;left=0;bottom=0;right=0;align=left;spacingLeft=6;overflow=hidden;whiteSpace=wrap;html=1;" vertex="1" parent="q7Uk0JzoAxezMymjL-A8-108">
          <mxGeometry x="30" width="170.01" height="30" as="geometry">
            <mxRectangle width="170.01" height="30" as="alternateBounds" />
          </mxGeometry>
        </mxCell>
        <mxCell id="q7Uk0JzoAxezMymjL-A8-114" value="mahasiswa" style="shape=table;startSize=30;container=1;collapsible=1;childLayout=tableLayout;fixedRows=1;rowLines=0;fontStyle=1;align=center;resizeLast=1;html=1;" vertex="1" parent="1">
          <mxGeometry x="440" y="220" width="199.99" height="150" as="geometry" />
        </mxCell>
        <mxCell id="q7Uk0JzoAxezMymjL-A8-115" value="" style="shape=tableRow;horizontal=0;startSize=0;swimlaneHead=0;swimlaneBody=0;fillColor=none;collapsible=0;dropTarget=0;points=[[0,0.5],[1,0.5]];portConstraint=eastwest;top=0;left=0;right=0;bottom=1;" vertex="1" parent="q7Uk0JzoAxezMymjL-A8-114">
          <mxGeometry y="30" width="199.99" height="30" as="geometry" />
        </mxCell>
        <mxCell id="q7Uk0JzoAxezMymjL-A8-116" value="PK" style="shape=partialRectangle;connectable=0;fillColor=none;top=0;left=0;bottom=0;right=0;fontStyle=1;overflow=hidden;whiteSpace=wrap;html=1;" vertex="1" parent="q7Uk0JzoAxezMymjL-A8-115">
          <mxGeometry width="30" height="30" as="geometry">
            <mxRectangle width="30" height="30" as="alternateBounds" />
          </mxGeometry>
        </mxCell>
        <mxCell id="q7Uk0JzoAxezMymjL-A8-117" value="id UUID" style="shape=partialRectangle;connectable=0;fillColor=none;top=0;left=0;bottom=0;right=0;align=left;spacingLeft=6;fontStyle=5;overflow=hidden;whiteSpace=wrap;html=1;" vertex="1" parent="q7Uk0JzoAxezMymjL-A8-115">
          <mxGeometry x="30" width="169.99" height="30" as="geometry">
            <mxRectangle width="169.99" height="30" as="alternateBounds" />
          </mxGeometry>
        </mxCell>
        <mxCell id="q7Uk0JzoAxezMymjL-A8-118" value="" style="shape=tableRow;horizontal=0;startSize=0;swimlaneHead=0;swimlaneBody=0;fillColor=none;collapsible=0;dropTarget=0;points=[[0,0.5],[1,0.5]];portConstraint=eastwest;top=0;left=0;right=0;bottom=0;" vertex="1" parent="q7Uk0JzoAxezMymjL-A8-114">
          <mxGeometry y="60" width="199.99" height="30" as="geometry" />
        </mxCell>
        <mxCell id="q7Uk0JzoAxezMymjL-A8-119" value="FK" style="shape=partialRectangle;connectable=0;fillColor=none;top=0;left=0;bottom=0;right=0;editable=1;overflow=hidden;whiteSpace=wrap;html=1;" vertex="1" parent="q7Uk0JzoAxezMymjL-A8-118">
          <mxGeometry width="30" height="30" as="geometry">
            <mxRectangle width="30" height="30" as="alternateBounds" />
          </mxGeometry>
        </mxCell>
        <mxCell id="q7Uk0JzoAxezMymjL-A8-120" value="user_id UUID" style="shape=partialRectangle;connectable=0;fillColor=none;top=0;left=0;bottom=0;right=0;align=left;spacingLeft=6;overflow=hidden;whiteSpace=wrap;html=1;" vertex="1" parent="q7Uk0JzoAxezMymjL-A8-118">
          <mxGeometry x="30" width="169.99" height="30" as="geometry">
            <mxRectangle width="169.99" height="30" as="alternateBounds" />
          </mxGeometry>
        </mxCell>
        <mxCell id="q7Uk0JzoAxezMymjL-A8-121" value="" style="shape=tableRow;horizontal=0;startSize=0;swimlaneHead=0;swimlaneBody=0;fillColor=none;collapsible=0;dropTarget=0;points=[[0,0.5],[1,0.5]];portConstraint=eastwest;top=0;left=0;right=0;bottom=0;" vertex="1" parent="q7Uk0JzoAxezMymjL-A8-114">
          <mxGeometry y="90" width="199.99" height="30" as="geometry" />
        </mxCell>
        <mxCell id="q7Uk0JzoAxezMymjL-A8-122" value="" style="shape=partialRectangle;connectable=0;fillColor=none;top=0;left=0;bottom=0;right=0;editable=1;overflow=hidden;whiteSpace=wrap;html=1;" vertex="1" parent="q7Uk0JzoAxezMymjL-A8-121">
          <mxGeometry width="30" height="30" as="geometry">
            <mxRectangle width="30" height="30" as="alternateBounds" />
          </mxGeometry>
        </mxCell>
        <mxCell id="q7Uk0JzoAxezMymjL-A8-123" value="expert boolean NOT NULL" style="shape=partialRectangle;connectable=0;fillColor=none;top=0;left=0;bottom=0;right=0;align=left;spacingLeft=6;overflow=hidden;whiteSpace=wrap;html=1;" vertex="1" parent="q7Uk0JzoAxezMymjL-A8-121">
          <mxGeometry x="30" width="169.99" height="30" as="geometry">
            <mxRectangle width="169.99" height="30" as="alternateBounds" />
          </mxGeometry>
        </mxCell>
        <mxCell id="q7Uk0JzoAxezMymjL-A8-156" value="" style="shape=tableRow;horizontal=0;startSize=0;swimlaneHead=0;swimlaneBody=0;fillColor=none;collapsible=0;dropTarget=0;points=[[0,0.5],[1,0.5]];portConstraint=eastwest;top=0;left=0;right=0;bottom=0;" vertex="1" parent="q7Uk0JzoAxezMymjL-A8-114">
          <mxGeometry y="120" width="199.99" height="30" as="geometry" />
        </mxCell>
        <mxCell id="q7Uk0JzoAxezMymjL-A8-157" value="" style="shape=partialRectangle;connectable=0;fillColor=none;top=0;left=0;bottom=0;right=0;editable=1;overflow=hidden;whiteSpace=wrap;html=1;" vertex="1" parent="q7Uk0JzoAxezMymjL-A8-156">
          <mxGeometry width="30" height="30" as="geometry">
            <mxRectangle width="30" height="30" as="alternateBounds" />
          </mxGeometry>
        </mxCell>
        <mxCell id="q7Uk0JzoAxezMymjL-A8-158" value="skills varchar(255) NOT NULL" style="shape=partialRectangle;connectable=0;fillColor=none;top=0;left=0;bottom=0;right=0;align=left;spacingLeft=6;overflow=hidden;whiteSpace=wrap;html=1;" vertex="1" parent="q7Uk0JzoAxezMymjL-A8-156">
          <mxGeometry x="30" width="169.99" height="30" as="geometry">
            <mxRectangle width="169.99" height="30" as="alternateBounds" />
          </mxGeometry>
        </mxCell>
        <mxCell id="q7Uk0JzoAxezMymjL-A8-127" value="" style="edgeStyle=orthogonalEdgeStyle;fontSize=12;html=1;endArrow=ERoneToMany;rounded=0;" edge="1" parent="1" source="wc5Q7rNn-N-xNiQu3_dc-68" target="wc5Q7rNn-N-xNiQu3_dc-125">
          <mxGeometry width="100" height="100" relative="1" as="geometry">
            <mxPoint x="-69.99" y="1070" as="sourcePoint" />
            <mxPoint x="-69.99" y="1370" as="targetPoint" />
            <Array as="points">
              <mxPoint x="-480" y="605" />
              <mxPoint x="-480" y="935" />
            </Array>
          </mxGeometry>
        </mxCell>
        <mxCell id="q7Uk0JzoAxezMymjL-A8-143" value="" style="edgeStyle=orthogonalEdgeStyle;fontSize=12;html=1;endArrow=ERoneToMany;rounded=0;" edge="1" parent="1" source="wc5Q7rNn-N-xNiQu3_dc-42" target="wc5Q7rNn-N-xNiQu3_dc-122">
          <mxGeometry width="100" height="100" relative="1" as="geometry">
            <mxPoint x="-69.99" y="1075" as="sourcePoint" />
            <mxPoint x="-69.99" y="1375" as="targetPoint" />
            <Array as="points">
              <mxPoint x="-160" y="800" />
              <mxPoint x="-160" y="905" />
            </Array>
          </mxGeometry>
        </mxCell>
        <mxCell id="q7Uk0JzoAxezMymjL-A8-144" value="" style="edgeStyle=orthogonalEdgeStyle;fontSize=12;html=1;endArrow=ERoneToMany;rounded=0;" edge="1" parent="1" source="wc5Q7rNn-N-xNiQu3_dc-43" target="wc5Q7rNn-N-xNiQu3_dc-108">
          <mxGeometry width="100" height="100" relative="1" as="geometry">
            <mxPoint x="50.00999999999999" y="1150" as="sourcePoint" />
            <mxPoint x="210.01" y="1375" as="targetPoint" />
            <Array as="points">
              <mxPoint x="-160" y="680" />
              <mxPoint x="-160" y="665" />
            </Array>
          </mxGeometry>
        </mxCell>
        <mxCell id="q7Uk0JzoAxezMymjL-A8-145" value="" style="edgeStyle=orthogonalEdgeStyle;fontSize=12;html=1;endArrow=ERmandOne;startArrow=ERmandOne;rounded=0;" edge="1" parent="1" source="wc5Q7rNn-N-xNiQu3_dc-96" target="wc5Q7rNn-N-xNiQu3_dc-1">
          <mxGeometry width="100" height="100" relative="1" as="geometry">
            <mxPoint x="300.00999999999993" y="1030" as="sourcePoint" />
            <mxPoint x="400.00999999999993" y="930" as="targetPoint" />
            <Array as="points">
              <mxPoint x="-160" y="635" />
              <mxPoint x="-160" y="540" />
            </Array>
          </mxGeometry>
        </mxCell>
        <mxCell id="q7Uk0JzoAxezMymjL-A8-147" value="" style="edgeStyle=orthogonalEdgeStyle;fontSize=12;html=1;endArrow=ERmandOne;startArrow=ERmandOne;rounded=0;" edge="1" parent="1" source="wc5Q7rNn-N-xNiQu3_dc-119" target="wc5Q7rNn-N-xNiQu3_dc-1">
          <mxGeometry width="100" height="100" relative="1" as="geometry">
            <mxPoint x="170.01000000000002" y="1035" as="sourcePoint" />
            <mxPoint x="290.00999999999993" y="730" as="targetPoint" />
            <Array as="points">
              <mxPoint x="-440" y="875" />
              <mxPoint x="-440" y="520" />
            </Array>
          </mxGeometry>
        </mxCell>
        <mxCell id="q7Uk0JzoAxezMymjL-A8-148" value="" style="edgeStyle=orthogonalEdgeStyle;fontSize=12;html=1;endArrow=ERoneToMany;rounded=0;" edge="1" parent="1" source="q7Uk0JzoAxezMymjL-A8-6" target="q7Uk0JzoAxezMymjL-A8-59">
          <mxGeometry width="100" height="100" relative="1" as="geometry">
            <mxPoint x="870.0100000000001" y="780.0000000000002" as="sourcePoint" />
            <mxPoint x="910.0100000000001" y="1255" as="targetPoint" />
            <Array as="points">
              <mxPoint x="800" y="800" />
              <mxPoint x="800" y="905" />
            </Array>
          </mxGeometry>
        </mxCell>
        <mxCell id="q7Uk0JzoAxezMymjL-A8-149" value="" style="edgeStyle=orthogonalEdgeStyle;fontSize=12;html=1;endArrow=ERoneToMany;rounded=0;" edge="1" parent="1" source="q7Uk0JzoAxezMymjL-A8-6" target="q7Uk0JzoAxezMymjL-A8-46">
          <mxGeometry width="100" height="100" relative="1" as="geometry">
            <mxPoint x="890.0100000000001" y="780" as="sourcePoint" />
            <mxPoint x="930.0100000000001" y="1265" as="targetPoint" />
            <Array as="points">
              <mxPoint x="800" y="780" />
              <mxPoint x="800" y="665" />
            </Array>
          </mxGeometry>
        </mxCell>
        <mxCell id="q7Uk0JzoAxezMymjL-A8-150" value="" style="edgeStyle=orthogonalEdgeStyle;fontSize=12;html=1;endArrow=ERmandOne;startArrow=ERmandOne;rounded=0;" edge="1" parent="1" source="q7Uk0JzoAxezMymjL-A8-43" target="wc5Q7rNn-N-xNiQu3_dc-1">
          <mxGeometry width="100" height="100" relative="1" as="geometry">
            <mxPoint x="960.0100000000001" y="644.98" as="sourcePoint" />
            <mxPoint x="540.0099999999999" y="500.0004081632651" as="targetPoint" />
            <Array as="points">
              <mxPoint x="800" y="635" />
              <mxPoint x="800" y="540" />
            </Array>
          </mxGeometry>
        </mxCell>
        <mxCell id="q7Uk0JzoAxezMymjL-A8-152" value="" style="edgeStyle=orthogonalEdgeStyle;fontSize=12;html=1;endArrow=ERoneToMany;rounded=0;" edge="1" parent="1" source="q7Uk0JzoAxezMymjL-A8-37" target="q7Uk0JzoAxezMymjL-A8-62">
          <mxGeometry width="100" height="100" relative="1" as="geometry">
            <mxPoint x="850.0100000000001" y="890" as="sourcePoint" />
            <mxPoint x="730.0100000000001" y="1065" as="targetPoint" />
            <Array as="points">
              <mxPoint x="1080" y="605" />
              <mxPoint x="1080" y="935" />
            </Array>
          </mxGeometry>
        </mxCell>
        <mxCell id="q7Uk0JzoAxezMymjL-A8-153" value="" style="edgeStyle=orthogonalEdgeStyle;fontSize=12;html=1;endArrow=ERoneToMany;rounded=0;" edge="1" parent="1" source="wc5Q7rNn-N-xNiQu3_dc-43" target="q7Uk0JzoAxezMymjL-A8-29">
          <mxGeometry width="100" height="100" relative="1" as="geometry">
            <mxPoint x="850.0100000000001" y="820" as="sourcePoint" />
            <mxPoint x="890.0100000000001" y="1305" as="targetPoint" />
            <Array as="points">
              <mxPoint x="340" y="725" />
              <mxPoint x="340" y="785" />
            </Array>
          </mxGeometry>
        </mxCell>
        <mxCell id="q7Uk0JzoAxezMymjL-A8-154" value="" style="edgeStyle=orthogonalEdgeStyle;fontSize=12;html=1;endArrow=ERmandOne;startArrow=ERmandOne;rounded=0;" edge="1" parent="1" source="wc5Q7rNn-N-xNiQu3_dc-1" target="q7Uk0JzoAxezMymjL-A8-105">
          <mxGeometry width="100" height="100" relative="1" as="geometry">
            <mxPoint x="470.00999999999993" y="510" as="sourcePoint" />
            <mxPoint x="570.0100000000001" y="410" as="targetPoint" />
            <Array as="points">
              <mxPoint x="280" y="295" />
            </Array>
          </mxGeometry>
        </mxCell>
        <mxCell id="q7Uk0JzoAxezMymjL-A8-155" value="" style="edgeStyle=orthogonalEdgeStyle;fontSize=12;html=1;endArrow=ERmandOne;startArrow=ERmandOne;rounded=0;" edge="1" parent="1" source="wc5Q7rNn-N-xNiQu3_dc-1" target="q7Uk0JzoAxezMymjL-A8-118">
          <mxGeometry width="100" height="100" relative="1" as="geometry">
            <mxPoint x="290.00999999999993" y="530" as="sourcePoint" />
            <mxPoint x="210.01000000000002" y="365" as="targetPoint" />
            <Array as="points">
              <mxPoint x="400" y="295" />
            </Array>
          </mxGeometry>
        </mxCell>
        <mxCell id="q7Uk0JzoAxezMymjL-A8-163" value="" style="edgeStyle=orthogonalEdgeStyle;fontSize=12;html=1;endArrow=ERmandOne;startArrow=ERmandOne;rounded=0;" edge="1" parent="1" source="q7Uk0JzoAxezMymjL-A8-56" target="wc5Q7rNn-N-xNiQu3_dc-1">
          <mxGeometry width="100" height="100" relative="1" as="geometry">
            <mxPoint x="1060.01" y="820" as="sourcePoint" />
            <mxPoint x="520.01" y="480" as="targetPoint" />
            <Array as="points">
              <mxPoint x="1120" y="875" />
              <mxPoint x="1120" y="520" />
            </Array>
          </mxGeometry>
        </mxCell>
        <mxCell id="q7Uk0JzoAxezMymjL-A8-167" value="verified_request" style="shape=table;startSize=30;container=1;collapsible=1;childLayout=tableLayout;fixedRows=1;rowLines=0;fontStyle=1;align=center;resizeLast=1;html=1;" vertex="1" parent="1">
          <mxGeometry x="80" y="120" width="200.01" height="60" as="geometry" />
        </mxCell>
        <mxCell id="q7Uk0JzoAxezMymjL-A8-171" value="" style="shape=tableRow;horizontal=0;startSize=0;swimlaneHead=0;swimlaneBody=0;fillColor=none;collapsible=0;dropTarget=0;points=[[0,0.5],[1,0.5]];portConstraint=eastwest;top=0;left=0;right=0;bottom=0;" vertex="1" parent="q7Uk0JzoAxezMymjL-A8-167">
          <mxGeometry y="30" width="200.01" height="30" as="geometry" />
        </mxCell>
        <mxCell id="q7Uk0JzoAxezMymjL-A8-172" value="FK" style="shape=partialRectangle;connectable=0;fillColor=none;top=0;left=0;bottom=0;right=0;editable=1;overflow=hidden;whiteSpace=wrap;html=1;" vertex="1" parent="q7Uk0JzoAxezMymjL-A8-171">
          <mxGeometry width="30" height="30" as="geometry">
            <mxRectangle width="30" height="30" as="alternateBounds" />
          </mxGeometry>
        </mxCell>
        <mxCell id="q7Uk0JzoAxezMymjL-A8-173" value="user_id UUID" style="shape=partialRectangle;connectable=0;fillColor=none;top=0;left=0;bottom=0;right=0;align=left;spacingLeft=6;overflow=hidden;whiteSpace=wrap;html=1;" vertex="1" parent="q7Uk0JzoAxezMymjL-A8-171">
          <mxGeometry x="30" width="170.01" height="30" as="geometry">
            <mxRectangle width="170.01" height="30" as="alternateBounds" />
          </mxGeometry>
        </mxCell>
        <mxCell id="q7Uk0JzoAxezMymjL-A8-177" value="" style="edgeStyle=orthogonalEdgeStyle;fontSize=12;html=1;endArrow=ERmandOne;startArrow=ERmandOne;rounded=0;" edge="1" parent="1" source="wc5Q7rNn-N-xNiQu3_dc-1" target="q7Uk0JzoAxezMymjL-A8-171">
          <mxGeometry width="100" height="100" relative="1" as="geometry">
            <mxPoint x="270.00999999999993" y="480" as="sourcePoint" />
            <mxPoint x="210.01000000000002" y="405" as="targetPoint" />
            <Array as="points">
              <mxPoint x="320" y="165" />
            </Array>
          </mxGeometry>
        </mxCell>
        <mxCell id="q7Uk0JzoAxezMymjL-A8-178" value="badge_request" style="shape=table;startSize=30;container=1;collapsible=1;childLayout=tableLayout;fixedRows=1;rowLines=0;fontStyle=1;align=center;resizeLast=1;html=1;" vertex="1" parent="1">
          <mxGeometry x="400" y="120" width="199.99" height="60" as="geometry" />
        </mxCell>
        <mxCell id="q7Uk0JzoAxezMymjL-A8-179" value="" style="shape=tableRow;horizontal=0;startSize=0;swimlaneHead=0;swimlaneBody=0;fillColor=none;collapsible=0;dropTarget=0;points=[[0,0.5],[1,0.5]];portConstraint=eastwest;top=0;left=0;right=0;bottom=0;" vertex="1" parent="q7Uk0JzoAxezMymjL-A8-178">
          <mxGeometry y="30" width="199.99" height="30" as="geometry" />
        </mxCell>
        <mxCell id="q7Uk0JzoAxezMymjL-A8-180" value="FK" style="shape=partialRectangle;connectable=0;fillColor=none;top=0;left=0;bottom=0;right=0;editable=1;overflow=hidden;whiteSpace=wrap;html=1;" vertex="1" parent="q7Uk0JzoAxezMymjL-A8-179">
          <mxGeometry width="30" height="30" as="geometry">
            <mxRectangle width="30" height="30" as="alternateBounds" />
          </mxGeometry>
        </mxCell>
        <mxCell id="q7Uk0JzoAxezMymjL-A8-181" value="user_id UUID" style="shape=partialRectangle;connectable=0;fillColor=none;top=0;left=0;bottom=0;right=0;align=left;spacingLeft=6;overflow=hidden;whiteSpace=wrap;html=1;" vertex="1" parent="q7Uk0JzoAxezMymjL-A8-179">
          <mxGeometry x="30" width="169.99" height="30" as="geometry">
            <mxRectangle width="169.99" height="30" as="alternateBounds" />
          </mxGeometry>
        </mxCell>
        <mxCell id="q7Uk0JzoAxezMymjL-A8-183" value="" style="edgeStyle=orthogonalEdgeStyle;fontSize=12;html=1;endArrow=ERmandOne;startArrow=ERmandOne;rounded=0;" edge="1" parent="1" source="wc5Q7rNn-N-xNiQu3_dc-1" target="q7Uk0JzoAxezMymjL-A8-179">
          <mxGeometry width="100" height="100" relative="1" as="geometry">
            <mxPoint x="550.0100000000001" y="490" as="sourcePoint" />
            <mxPoint x="610.0100000000001" y="375" as="targetPoint" />
            <Array as="points">
              <mxPoint x="360" y="165" />
            </Array>
          </mxGeometry>
        </mxCell>
        <mxCell id="q7Uk0JzoAxezMymjL-A8-210" value="" style="edgeStyle=orthogonalEdgeStyle;fontSize=12;html=1;endArrow=ERoneToMany;rounded=0;" edge="1" parent="1" source="wc5Q7rNn-N-xNiQu3_dc-1" target="wc5Q7rNn-N-xNiQu3_dc-46">
          <mxGeometry width="100" height="100" relative="1" as="geometry">
            <mxPoint x="270" y="680" as="sourcePoint" />
            <mxPoint x="370" y="580" as="targetPoint" />
            <Array as="points">
              <mxPoint x="160" y="560" />
              <mxPoint x="160" y="755" />
            </Array>
          </mxGeometry>
        </mxCell>
        <mxCell id="q7Uk0JzoAxezMymjL-A8-211" value="" style="edgeStyle=orthogonalEdgeStyle;fontSize=12;html=1;endArrow=ERoneToMany;rounded=0;" edge="1" parent="1" source="wc5Q7rNn-N-xNiQu3_dc-1" target="q7Uk0JzoAxezMymjL-A8-25">
          <mxGeometry width="100" height="100" relative="1" as="geometry">
            <mxPoint x="210" y="520" as="sourcePoint" />
            <mxPoint x="130" y="725" as="targetPoint" />
            <Array as="points">
              <mxPoint x="520" y="560" />
              <mxPoint x="520" y="755" />
            </Array>
          </mxGeometry>
        </mxCell>
      </root>
    </mxGraphModel>
  </diagram>
</mxfile>
